# xmcd
#
# Track frame offsets: 
#        150
#        16987
#        48790
#        74437
#
# Disc length: 1451 seconds
#
# Revision: 0
# Processed by: cddbd v1.5.1PL2 Copyright (c) Steve Scherf et al.
# Submitted via: ExactAudioCopy v0.95b3
#
DISCID=2b05a904
DTITLE=Web - Lovin times
DYEAR=1999
DGENRE=Dance
TTITLE0=Lovin times (Radio cut)
TTITLE1=Lovin times (Extended mix)
TTITLE2=Lovin times (Mythos n DJ Cosmo remix)
TTITLE3=Lovin times (Signum remix)
EXTD=
EXTT0=
EXTT1=
EXTT2=
EXTT3=
PLAYORDER=
